#!OML:ASF F:\VICON\USERDATA\Patient Classification 1\PLAYGROUND\JustinFriday\JustinFriday.ASF
:FULLY-SPECIFIED
:DEGREES
582
root 12.6643 27.4001 47.4576 -172.098 7.64488 -176.168
lowerback 36.6734 3.57578 0.532338
upperback 4.54818 7.07957 3.90524
thorax -13.6474 3.85035 0.730598
lowerneck 0.313397 -0.573224 -1.76821
upperneck -32.9371 -4.27685 4.5744
head -10.4551 -4.15849 2.68006
rclavicle 4.13472e-014 -3.4191e-014
rhumerus 38.4226 -21.1199 -68.1273
rradius 85.2167
rwrist 2.38881
rhand -34.21 -37.3817
rfingers 7.12502
rthumb -7.38224 -67.2329
lclavicle 4.13472e-014 -3.4191e-014
lhumerus 10.345 -10.4798 68.3233
lradius 111.207
lwrist -23.9628
lhand -42.0186 -13.3534
lfingers 7.12502
lthumb -14.9131 16.0898
rfemur -77.6523 -5.91808 29.0426
rtibia 98.7203
rfoot -26.6718 -7.44828
rtoes 0.518911
lfemur -24.6215 10.8749 -23.5788
ltibia 30.1545
lfoot -20.0227 -0.258245
ltoes 13.7097
583
root 12.6902 27.3952 47.3762 -172.902 8.97984 -177.098
lowerback 36.2992 4.30392 -0.839757
upperback 4.78743 7.3665 3.49999
thorax -13.3156 4.03385 0.920484
lowerneck 0.24402 -0.637812 -2.09806
upperneck -32.7422 -4.22092 5.08073
head -10.3446 -4.12793 2.8983
rclavicle -2.06736e-014 -1.27222e-014
rhumerus 37.5208 -21.0488 -68.2807
rradius 85.7353
rwrist 3.56722
rhand -33.0591 -37.6773
rfingers 7.12502
rthumb -6.27123 -67.5645
lclavicle -2.06736e-014 -1.27222e-014
lhumerus 11.8388 -8.46113 66.732
lradius 112.595
lwrist -23.6594
lhand -42.5589 -12.7458
lfingers 7.12502
lthumb -15.4335 16.6581
rfemur -76.3181 -4.86278 27.7081
rtibia 99.0075
rfoot -27.9412 -8.40058
rtoes -0.470704
lfemur -23.5146 11.3261 -24.5332
ltibia 30.5423
lfoot -20.9885 0.734697
ltoes 13.2498
584
root 12.7169 27.3848 47.3945 -172.306 7.01616 -176.636
lowerback 35.8905 3.36961 0.399172
upperback 4.46175 6.61027 3.52849
thorax -13.5086 3.61849 0.615984
lowerneck 0.0103714 -0.7167 -2.30981
upperneck -32.458 -4.18179 5.56972
head -10.1715 -4.11807 3.08016
rclavicle -7.95139e-016 -1.82882e-014
rhumerus 36.648 -21.0375 -68.2468
rradius 86.362
rwrist 4.63505
rhand -32.7615 -38.2399
rfingers 7.12502
rthumb -5.98392 -68.1354
lclavicle -7.95139e-016 -1.82882e-014
lhumerus 13.2086 -6.19104 65.0388
lradius 114.196
lwrist -23.1536
lhand -41.3598 -14.9625
lfingers 7.12502
lthumb -14.2783 14.5267
rfemur -76.8346 -6.16924 28.784
rtibia 99.0461
rfoot -28.6329 -9.46488
rtoes 0.208078
lfemur -24.4734 10.275 -23.8749
ltibia 30.7539
lfoot -20.5405 0.00496567
ltoes 13.0439
585
root 12.7256 27.3774 47.3774 -172.066 5.52032 -176.491
lowerback 35.3701 2.57868 1.41536
upperback 4.2778 5.93905 3.44448
thorax -13.3994 3.26472 0.302282
lowerneck -0.0459253 -0.821634 -2.63864
upperneck -32.2056 -4.15251 6.14426
head -10.0389 -4.1013 3.31925
rclavicle -6.20208e-014 -3.73715e-014
rhumerus 35.8108 -21.0297 -68.0666
rradius 87.2144
rwrist 5.67227
rhand -31.8151 -39.5921
rfingers 7.12502
rthumb -5.0702 -69.5115
lclavicle -6.20208e-014 -3.73715e-014
lhumerus 15.7862 -4.22327 64.0037
lradius 114.392
lwrist -23.2235
lhand -42.2841 -14.8737
lfingers 7.12502
lthumb -15.1689 14.5504
rfemur -77.0346 -7.64715 29.3176
rtibia 99.1472
rfoot -29.4091 -10.1869
rtoes 0.572559
lfemur -24.7257 9.25528 -23.6357
ltibia 30.5831
lfoot -20.1094 -0.345337
ltoes 13.2394
586
root 12.7598 27.3861 47.3266 -172.75 6.23259 -176.733
lowerback 35.4239 3.01078 0.646825
upperback 4.43994 6.18624 3.3196
thorax -13.2906 3.4163 0.4713
lowerneck 0.211357 -0.863011 -2.72128
upperneck -32.4676 -4.19034 6.39236
head -10.1755 -4.14868 3.45073
rclavicle 3.97569e-015 5.56597e-015
rhumerus 35.0894 -21.0079 -68.0025
rradius 88.2421
rwrist 7.15836
rhand -29.8276 -40.9756
rfingers 7.12502
rthumb -3.15099 -70.932
lclavicle 3.97569e-015 5.56597e-015
lhumerus 18.0621 -2.21765 62.9915
lradius 114.929
lwrist -23.1708
lhand -43.6609 -14.5818
lfingers 7.12502
lthumb -16.4948 14.7371
rfemur -75.8514 -6.94452 28.8301
rtibia 99.1624
rfoot -30.025 -10.8318
rtoes 0.429767
lfemur -23.698 9.88861 -23.7802
ltibia 30.5246
lfoot -20.224 -0.195054
ltoes 13.1924
587
root 12.7813 27.3976 47.2447 -174.05 6.99964 -178.263
lowerback 35.6119 3.5283 -0.993117
upperback 4.73464 6.17108 2.83482
thorax -13.1004 3.49016 0.822989
lowerneck 0.320676 -0.863037 -3.05146
upperneck -32.4343 -4.12372 6.66833
head -10.1701 -4.09626 3.60176
rclavicle -3.81667e-014 -1.19271e-014
rhumerus 34.4337 -20.9412 -67.9463
rradius 89.3596
rwrist 8.7844
rhand -30.0489 -42.705
rfingers 7.12502
rthumb -3.36472 -72.6582
lclavicle -3.81667e-014 -1.19271e-014
lhumerus 20.112 -0.291936 62.0081
lradius 115.549
lwrist -23.1833
lhand -44.5621 -15.1253
lfingers 7.12502
lthumb -17.3622 14.1193
rfemur -74.3133 -6.94567 26.819
rtibia 99.4598
rfoot -30.7677 -10.4729
rtoes 0.498836
lfemur -21.8404 9.99321 -25.2736
ltibia 30.3895
lfoot -20.7363 0.364313
ltoes 13.4726
588
root 12.8061 27.3975 47.2561 -173.776 5.90632 -178.109
lowerback 35.6179 3.06971 -0.457146
upperback 4.34173 5.73015 2.81913
thorax -13.4949 3.23741 0.699106
lowerneck 0.248454 -1.05503 -3.55401
upperneck -31.8918 -4.18024 7.20655
head -9.91544 -4.06502 3.84004
rclavicle 4.21423e-014 -7.95139e-015
rhumerus 33.7066 -20.8363 -67.8224
rradius 90.6948
rwrist 10.273
rhand -28.6827 -44.2676
rfingers 7.12502
rthumb -2.04523 -74.2375
lclavicle 4.21423e-014 -7.95139e-015
lhumerus 22.132 1.53684 61.0582
lradius 116
lwrist -23.1732
lhand -44.9081 -15.518
lfingers 7.12502
lthumb -17.6952 13.6968
rfemur -74.6466 -7.51166 27.2047
rtibia 99.4952
rfoot -30.6905 -10.6858
rtoes 1.42234
lfemur -22.192 9.19884 -24.9605
ltibia 30.3486
lfoot -20.33 0.133832
ltoes 13.9203
